<svg xmlns="http://www.w3.org/2000/svg" viewBox="0 0 1920 1080" preserveAspectRatio="xMidYMid slice">
  <defs>
    <radialGradient id="starGlow" cx="50%" cy="50%" r="50%">
      <stop offset="0%" stop-color="#a78bfa" stop-opacity="0.8"/>
      <stop offset="100%" stop-color="#a78bfa" stop-opacity="0"/>
    </radialGradient>
    <linearGradient id="lineGrad" x1="0%" y1="0%" x2="100%" y2="100%">
      <stop offset="0%" stop-color="#4c1d95" stop-opacity="0.15"/>
      <stop offset="50%" stop-color="#6366f1" stop-opacity="0.2"/>
      <stop offset="100%" stop-color="#4c1d95" stop-opacity="0.15"/>
    </linearGradient>
  </defs>

  <rect width="1920" height="1080" fill="transparent"/>

  <!-- Constellation Group 1 - Orion-like -->
  <g opacity="0.15" stroke="url(#lineGrad)" stroke-width="1" fill="none">
    <path d="M200,150 L280,200 L350,180 L420,220 L380,320 L340,450 L300,520"/>
    <path d="M280,200 L320,280 L380,320"/>
    <path d="M350,180 L380,260 L380,320"/>
  </g>
  <g fill="#c4b5fd" opacity="0.2">
    <circle cx="200" cy="150" r="3"/><circle cx="280" cy="200" r="4"/>
    <circle cx="350" cy="180" r="3"/><circle cx="420" cy="220" r="2"/>
    <circle cx="380" cy="320" r="4"/><circle cx="340" cy="450" r="3"/>
    <circle cx="300" cy="520" r="2"/><circle cx="320" cy="280" r="2"/>
    <circle cx="380" cy="260" r="2"/>
  </g>

  <!-- Constellation Group 2 - Big Dipper-like -->
  <g opacity="0.15" stroke="url(#lineGrad)" stroke-width="1" fill="none">
    <path d="M600,100 L720,80 L850,120 L900,200 L880,300 L800,350 L700,320 L600,100"/>
    <path d="M900,200 L1000,180 L1100,220"/>
  </g>
  <g fill="#a78bfa" opacity="0.2">
    <circle cx="600" cy="100" r="4"/><circle cx="720" cy="80" r="3"/>
    <circle cx="850" cy="120" r="4"/><circle cx="900" cy="200" r="5"/>
    <circle cx="880" cy="300" r="3"/><circle cx="800" cy="350" r="3"/>
    <circle cx="700" cy="320" r="2"/><circle cx="1000" cy="180" r="3"/>
    <circle cx="1100" cy="220" r="4"/>
  </g>

  <!-- Constellation Group 3 -->
  <g opacity="0.15" stroke="url(#lineGrad)" stroke-width="1" fill="none">
    <path d="M1300,50 L1400,120 L1500,80 L1600,150 L1550,250 L1450,280 L1350,220 L1300,50"/>
    <path d="M1400,120 L1420,200 L1450,280"/>
  </g>
  <g fill="#c4b5fd" opacity="0.2">
    <circle cx="1300" cy="50" r="3"/><circle cx="1400" cy="120" r="4"/>
    <circle cx="1500" cy="80" r="3"/><circle cx="1600" cy="150" r="4"/>
    <circle cx="1550" cy="250" r="3"/><circle cx="1450" cy="280" r="3"/>
    <circle cx="1350" cy="220" r="2"/><circle cx="1420" cy="200" r="2"/>
  </g>

  <!-- Constellation Group 4 -->
  <g opacity="0.15" stroke="url(#lineGrad)" stroke-width="1" fill="none">
    <path d="M1700,300 L1800,350 L1850,450 L1780,550 L1680,520 L1650,400 L1700,300"/>
  </g>
  <g fill="#a78bfa" opacity="0.2">
    <circle cx="1700" cy="300" r="3"/><circle cx="1800" cy="350" r="4"/>
    <circle cx="1850" cy="450" r="3"/><circle cx="1780" cy="550" r="3"/>
    <circle cx="1680" cy="520" r="2"/><circle cx="1650" cy="400" r="3"/>
  </g>

  <!-- Constellation Group 5 - Lower left -->
  <g opacity="0.15" stroke="url(#lineGrad)" stroke-width="1" fill="none">
    <path d="M100,600 L200,650 L180,750 L280,800 L250,900 L150,880 L100,780 L100,600"/>
    <path d="M200,650 L300,680 L380,720"/>
  </g>
  <g fill="#c4b5fd" opacity="0.2">
    <circle cx="100" cy="600" r="4"/><circle cx="200" cy="650" r="3"/>
    <circle cx="180" cy="750" r="3"/><circle cx="280" cy="800" r="4"/>
    <circle cx="250" cy="900" r="3"/><circle cx="150" cy="880" r="2"/>
    <circle cx="100" cy="780" r="3"/><circle cx="300" cy="680" r="2"/>
    <circle cx="380" cy="720" r="3"/>
  </g>

  <!-- Constellation Group 6 - Center -->
  <g opacity="0.15" stroke="url(#lineGrad)" stroke-width="1" fill="none">
    <path d="M700,450 L820,480 L900,550 L950,650 L880,720 L750,700 L680,600 L700,450"/>
    <path d="M820,480 L850,400 L920,350"/>
    <path d="M900,550 L1000,520 L1080,560"/>
  </g>
  <g fill="#a78bfa" opacity="0.2">
    <circle cx="700" cy="450" r="3"/><circle cx="820" cy="480" r="5"/>
    <circle cx="900" cy="550" r="4"/><circle cx="950" cy="650" r="3"/>
    <circle cx="880" cy="720" r="3"/><circle cx="750" cy="700" r="2"/>
    <circle cx="680" cy="600" r="3"/><circle cx="850" cy="400" r="3"/>
    <circle cx="920" cy="350" r="4"/><circle cx="1000" cy="520" r="2"/>
    <circle cx="1080" cy="560" r="3"/>
  </g>

  <!-- Constellation Group 7 - Lower right -->
  <g opacity="0.15" stroke="url(#lineGrad)" stroke-width="1" fill="none">
    <path d="M1200,650 L1320,680 L1400,750 L1480,720 L1550,800 L1500,900 L1380,920 L1280,850 L1200,650"/>
  </g>
  <g fill="#c4b5fd" opacity="0.2">
    <circle cx="1200" cy="650" r="3"/><circle cx="1320" cy="680" r="4"/>
    <circle cx="1400" cy="750" r="5"/><circle cx="1480" cy="720" r="3"/>
    <circle cx="1550" cy="800" r="3"/><circle cx="1500" cy="900" r="4"/>
    <circle cx="1380" cy="920" r="3"/><circle cx="1280" cy="850" r="2"/>
  </g>

  <!-- Constellation Group 8 - Far right bottom -->
  <g opacity="0.15" stroke="url(#lineGrad)" stroke-width="1" fill="none">
    <path d="M1650,700 L1750,680 L1850,750 L1800,850 L1700,880 L1620,820 L1650,700"/>
  </g>
  <g fill="#a78bfa" opacity="0.2">
    <circle cx="1650" cy="700" r="3"/><circle cx="1750" cy="680" r="4"/>
    <circle cx="1850" cy="750" r="3"/><circle cx="1800" cy="850" r="3"/>
    <circle cx="1700" cy="880" r="4"/><circle cx="1620" cy="820" r="2"/>
  </g>

  <!-- Additional scattered stars for depth -->
  <g fill="#e0e7ff" opacity="0.1">
    <circle cx="50" cy="50" r="1"/><circle cx="150" cy="300" r="1.5"/>
    <circle cx="450" cy="100" r="1"/><circle cx="550" cy="380" r="1"/>
    <circle cx="1150" cy="400" r="1.5"/><circle cx="1250" cy="150" r="1"/>
    <circle cx="480" cy="850" r="1"/><circle cx="620" cy="950" r="1.5"/>
    <circle cx="1050" cy="900" r="1"/><circle cx="1750" cy="500" r="1"/>
    <circle cx="1880" cy="200" r="1.5"/><circle cx="1900" cy="950" r="1"/>
    <circle cx="960" cy="100" r="1"/><circle cx="1100" cy="750" r="1.5"/>
    <circle cx="400" cy="600" r="1"/><circle cx="550" cy="200" r="1"/>
  </g>
</svg>