<svg xmlns="http://www.w3.org/2000/svg" viewBox="0 0 1920 1080" preserveAspectRatio="xMidYMid slice">
  <defs>
    <radialGradient id="starGlowSmall" cx="50%" cy="50%" r="50%">
      <stop offset="0%" stop-color="#fff" stop-opacity="1"/>
      <stop offset="100%" stop-color="#fff" stop-opacity="0"/>
    </radialGradient>
  </defs>

  <rect width="1920" height="1080" fill="transparent"/>

  <!-- Large bright stars (3-4px) -->
  <g fill="#ffffff">
    <circle cx="120" cy="85" r="3" opacity="1"/>
    <circle cx="450" cy="120" r="4" opacity="0.95"/>
    <circle cx="780" cy="45" r="3" opacity="1"/>
    <circle cx="1100" cy="95" r="4" opacity="0.9"/>
    <circle cx="1450" cy="60" r="3" opacity="1"/>
    <circle cx="1780" cy="110" r="4" opacity="0.95"/>
    <circle cx="250" cy="320" r="4" opacity="0.9"/>
    <circle cx="620" cy="280" r="3" opacity="1"/>
    <circle cx="980" cy="350" r="4" opacity="0.95"/>
    <circle cx="1320" cy="290" r="3" opacity="1"/>
    <circle cx="1680" cy="340" r="4" opacity="0.9"/>
    <circle cx="180" cy="550" r="3" opacity="1"/>
    <circle cx="520" cy="480" r="4" opacity="0.95"/>
    <circle cx="850" cy="520" r="3" opacity="1"/>
    <circle cx="1200" cy="490" r="4" opacity="0.9"/>
    <circle cx="1550" cy="540" r="3" opacity="1"/>
    <circle cx="1850" cy="500" r="4" opacity="0.95"/>
    <circle cx="320" cy="720" r="4" opacity="0.9"/>
    <circle cx="680" cy="680" r="3" opacity="1"/>
    <circle cx="1050" cy="750" r="4" opacity="0.95"/>
    <circle cx="1400" cy="700" r="3" opacity="1"/>
    <circle cx="1750" cy="760" r="4" opacity="0.9"/>
    <circle cx="100" cy="920" r="3" opacity="1"/>
    <circle cx="480" cy="880" r="4" opacity="0.95"/>
    <circle cx="820" cy="950" r="3" opacity="1"/>
    <circle cx="1150" cy="900" r="4" opacity="0.9"/>
    <circle cx="1500" cy="960" r="3" opacity="1"/>
    <circle cx="1880" cy="920" r="4" opacity="0.95"/>
  </g>

  <!-- Medium stars (2px) -->
  <g fill="#f8fafc">
    <circle cx="80" cy="180" r="2" opacity="0.8"/>
    <circle cx="220" cy="60" r="2" opacity="0.75"/>
    <circle cx="350" cy="220" r="2" opacity="0.85"/>
    <circle cx="520" cy="150" r="2" opacity="0.7"/>
    <circle cx="680" cy="180" r="2" opacity="0.8"/>
    <circle cx="850" cy="140" r="2" opacity="0.75"/>
    <circle cx="1000" cy="200" r="2" opacity="0.85"/>
    <circle cx="1180" cy="160" r="2" opacity="0.7"/>
    <circle cx="1350" cy="180" r="2" opacity="0.8"/>
    <circle cx="1520" cy="140" r="2" opacity="0.75"/>
    <circle cx="1700" cy="200" r="2" opacity="0.85"/>
    <circle cx="1850" cy="160" r="2" opacity="0.7"/>
    <circle cx="50" cy="400" r="2" opacity="0.8"/>
    <circle cx="200" cy="450" r="2" opacity="0.75"/>
    <circle cx="380" cy="380" r="2" opacity="0.85"/>
    <circle cx="550" cy="420" r="2" opacity="0.7"/>
    <circle cx="720" cy="400" r="2" opacity="0.8"/>
    <circle cx="900" cy="450" r="2" opacity="0.75"/>
    <circle cx="1080" cy="380" r="2" opacity="0.85"/>
    <circle cx="1250" cy="420" r="2" opacity="0.7"/>
    <circle cx="1420" cy="400" r="2" opacity="0.8"/>
    <circle cx="1600" cy="450" r="2" opacity="0.75"/>
    <circle cx="1780" cy="380" r="2" opacity="0.85"/>
    <circle cx="1900" cy="420" r="2" opacity="0.7"/>
    <circle cx="120" cy="620" r="2" opacity="0.8"/>
    <circle cx="280" cy="580" r="2" opacity="0.75"/>
    <circle cx="450" cy="650" r="2" opacity="0.85"/>
    <circle cx="620" cy="600" r="2" opacity="0.7"/>
    <circle cx="800" cy="620" r="2" opacity="0.8"/>
    <circle cx="970" cy="580" r="2" opacity="0.75"/>
    <circle cx="1140" cy="650" r="2" opacity="0.85"/>
    <circle cx="1320" cy="600" r="2" opacity="0.7"/>
    <circle cx="1490" cy="620" r="2" opacity="0.8"/>
    <circle cx="1660" cy="580" r="2" opacity="0.75"/>
    <circle cx="1830" cy="650" r="2" opacity="0.85"/>
    <circle cx="60" cy="820" r="2" opacity="0.8"/>
    <circle cx="240" cy="860" r="2" opacity="0.75"/>
    <circle cx="420" cy="780" r="2" opacity="0.85"/>
    <circle cx="600" cy="840" r="2" opacity="0.7"/>
    <circle cx="780" cy="820" r="2" opacity="0.8"/>
    <circle cx="960" cy="860" r="2" opacity="0.75"/>
    <circle cx="1140" cy="780" r="2" opacity="0.85"/>
    <circle cx="1320" cy="840" r="2" opacity="0.7"/>
    <circle cx="1500" cy="820" r="2" opacity="0.8"/>
    <circle cx="1680" cy="860" r="2" opacity="0.75"/>
    <circle cx="1860" cy="780" r="2" opacity="0.85"/>
    <circle cx="180" cy="1000" r="2" opacity="0.7"/>
    <circle cx="380" cy="1020" r="2" opacity="0.8"/>
    <circle cx="580" cy="980" r="2" opacity="0.75"/>
    <circle cx="780" cy="1040" r="2" opacity="0.85"/>
    <circle cx="980" cy="1000" r="2" opacity="0.7"/>
    <circle cx="1180" cy="1020" r="2" opacity="0.8"/>
    <circle cx="1380" cy="980" r="2" opacity="0.75"/>
    <circle cx="1580" cy="1040" r="2" opacity="0.85"/>
    <circle cx="1780" cy="1000" r="2" opacity="0.7"/>
  </g>

  <!-- Small dim stars (1-1.5px) -->
  <g fill="#e2e8f0">
    <circle cx="30" cy="30" r="1" opacity="0.5"/>
    <circle cx="95" cy="130" r="1.5" opacity="0.4"/>
    <circle cx="170" cy="240" r="1" opacity="0.55"/>
    <circle cx="260" cy="150" r="1.5" opacity="0.45"/>
    <circle cx="310" cy="80" r="1" opacity="0.5"/>
    <circle cx="400" cy="300" r="1.5" opacity="0.4"/>
    <circle cx="470" cy="50" r="1" opacity="0.55"/>
    <circle cx="560" cy="250" r="1.5" opacity="0.45"/>
    <circle cx="630" cy="100" r="1" opacity="0.5"/>
    <circle cx="720" cy="320" r="1.5" opacity="0.4"/>
    <circle cx="810" cy="220" r="1" opacity="0.55"/>
    <circle cx="880" cy="80" r="1.5" opacity="0.45"/>
    <circle cx="950" cy="270" r="1" opacity="0.5"/>
    <circle cx="1030" cy="130" r="1.5" opacity="0.4"/>
    <circle cx="1120" cy="300" r="1" opacity="0.55"/>
    <circle cx="1210" cy="50" r="1.5" opacity="0.45"/>
    <circle cx="1280" cy="230" r="1" opacity="0.5"/>
    <circle cx="1370" cy="120" r="1.5" opacity="0.4"/>
    <circle cx="1440" cy="280" r="1" opacity="0.55"/>
    <circle cx="1530" cy="200" r="1.5" opacity="0.45"/>
    <circle cx="1620" cy="70" r="1" opacity="0.5"/>
    <circle cx="1710" cy="260" r="1.5" opacity="0.4"/>
    <circle cx="1800" cy="40" r="1" opacity="0.55"/>
    <circle cx="1870" cy="300" r="1.5" opacity="0.45"/>
    <circle cx="40" cy="500" r="1" opacity="0.5"/>
    <circle cx="130" cy="360" r="1.5" opacity="0.4"/>
    <circle cx="210" cy="520" r="1" opacity="0.55"/>
    <circle cx="300" cy="440" r="1.5" opacity="0.45"/>
    <circle cx="390" cy="560" r="1" opacity="0.5"/>
    <circle cx="480" cy="340" r="1.5" opacity="0.4"/>
    <circle cx="570" cy="550" r="1" opacity="0.55"/>
    <circle cx="660" cy="400" r="1.5" opacity="0.45"/>
    <circle cx="750" cy="540" r="1" opacity="0.5"/>
    <circle cx="840" cy="360" r="1.5" opacity="0.4"/>
    <circle cx="930" cy="500" r="1" opacity="0.55"/>
    <circle cx="1020" cy="440" r="1.5" opacity="0.45"/>
    <circle cx="1110" cy="560" r="1" opacity="0.5"/>
    <circle cx="1200" cy="340" r="1.5" opacity="0.4"/>
    <circle cx="1290" cy="520" r="1" opacity="0.55"/>
    <circle cx="1380" cy="450" r="1.5" opacity="0.45"/>
    <circle cx="1470" cy="560" r="1" opacity="0.5"/>
    <circle cx="1560" cy="360" r="1.5" opacity="0.4"/>
    <circle cx="1650" cy="500" r="1" opacity="0.55"/>
    <circle cx="1740" cy="440" r="1.5" opacity="0.45"/>
    <circle cx="1830" cy="560" r="1" opacity="0.5"/>
    <circle cx="1900" cy="340" r="1.5" opacity="0.4"/>
    <circle cx="70" cy="700" r="1" opacity="0.55"/>
    <circle cx="160" cy="760" r="1.5" opacity="0.45"/>
    <circle cx="250" cy="680" r="1" opacity="0.5"/>
    <circle cx="340" cy="800" r="1.5" opacity="0.4"/>
    <circle cx="430" cy="720" r="1" opacity="0.55"/>
    <circle cx="520" cy="780" r="1.5" opacity="0.45"/>
    <circle cx="610" cy="700" r="1" opacity="0.5"/>
    <circle cx="700" cy="760" r="1.5" opacity="0.4"/>
    <circle cx="790" cy="680" r="1" opacity="0.55"/>
    <circle cx="880" cy="800" r="1.5" opacity="0.45"/>
    <circle cx="970" cy="720" r="1" opacity="0.5"/>
    <circle cx="1060" cy="780" r="1.5" opacity="0.4"/>
    <circle cx="1150" cy="700" r="1" opacity="0.55"/>
    <circle cx="1240" cy="760" r="1.5" opacity="0.45"/>
    <circle cx="1330" cy="680" r="1" opacity="0.5"/>
    <circle cx="1420" cy="800" r="1.5" opacity="0.4"/>
    <circle cx="1510" cy="720" r="1" opacity="0.55"/>
    <circle cx="1600" cy="780" r="1.5" opacity="0.45"/>
    <circle cx="1690" cy="700" r="1" opacity="0.5"/>
    <circle cx="1780" cy="760" r="1.5" opacity="0.4"/>
    <circle cx="1870" cy="680" r="1" opacity="0.55"/>
    <circle cx="20" cy="900" r="1.5" opacity="0.45"/>
    <circle cx="110" cy="980" r="1" opacity="0.5"/>
    <circle cx="200" cy="920" r="1.5" opacity="0.4"/>
    <circle cx="290" cy="1000" r="1" opacity="0.55"/>
    <circle cx="380" cy="940" r="1.5" opacity="0.45"/>
    <circle cx="470" cy="1020" r="1" opacity="0.5"/>
    <circle cx="560" cy="900" r="1.5" opacity="0.4"/>
    <circle cx="650" cy="980" r="1" opacity="0.55"/>
    <circle cx="740" cy="920" r="1.5" opacity="0.45"/>
    <circle cx="830" cy="1000" r="1" opacity="0.5"/>
    <circle cx="920" cy="940" r="1.5" opacity="0.4"/>
    <circle cx="1010" cy="1020" r="1" opacity="0.55"/>
    <circle cx="1100" cy="900" r="1.5" opacity="0.45"/>
    <circle cx="1190" cy="980" r="1" opacity="0.5"/>
    <circle cx="1280" cy="920" r="1.5" opacity="0.4"/>
    <circle cx="1370" cy="1000" r="1" opacity="0.55"/>
    <circle cx="1460" cy="940" r="1.5" opacity="0.45"/>
    <circle cx="1550" cy="1020" r="1" opacity="0.5"/>
    <circle cx="1640" cy="900" r="1.5" opacity="0.4"/>
    <circle cx="1730" cy="980" r="1" opacity="0.55"/>
    <circle cx="1820" cy="920" r="1.5" opacity="0.45"/>
    <circle cx="1910" cy="1000" r="1" opacity="0.5"/>
  </g>

  <!-- Tiny faint stars (0.5-1px) for extra depth -->
  <g fill="#cbd5e1">
    <circle cx="55" cy="75" r="0.5" opacity="0.3"/>
    <circle cx="145" cy="195" r="0.7" opacity="0.35"/>
    <circle cx="235" cy="115" r="0.5" opacity="0.3"/>
    <circle cx="325" cy="285" r="0.7" opacity="0.35"/>
    <circle cx="415" cy="175" r="0.5" opacity="0.3"/>
    <circle cx="505" cy="335" r="0.7" opacity="0.35"/>
    <circle cx="595" cy="75" r="0.5" opacity="0.3"/>
    <circle cx="685" cy="245" r="0.7" opacity="0.35"/>
    <circle cx="775" cy="155" r="0.5" opacity="0.3"/>
    <circle cx="865" cy="295" r="0.7" opacity="0.35"/>
    <circle cx="955" cy="65" r="0.5" opacity="0.3"/>
    <circle cx="1045" cy="255" r="0.7" opacity="0.35"/>
    <circle cx="1135" cy="185" r="0.5" opacity="0.3"/>
    <circle cx="1225" cy="315" r="0.7" opacity="0.35"/>
    <circle cx="1315" cy="85" r="0.5" opacity="0.3"/>
    <circle cx="1405" cy="225" r="0.7" opacity="0.35"/>
    <circle cx="1495" cy="145" r="0.5" opacity="0.3"/>
    <circle cx="1585" cy="305" r="0.7" opacity="0.35"/>
    <circle cx="1675" cy="175" r="0.5" opacity="0.3"/>
    <circle cx="1765" cy="135" r="0.7" opacity="0.35"/>
    <circle cx="1855" cy="245" r="0.5" opacity="0.3"/>
    <circle cx="45" cy="465" r="0.7" opacity="0.35"/>
    <circle cx="135" cy="535" r="0.5" opacity="0.3"/>
    <circle cx="225" cy="395" r="0.7" opacity="0.35"/>
    <circle cx="315" cy="575" r="0.5" opacity="0.3"/>
    <circle cx="405" cy="485" r="0.7" opacity="0.35"/>
    <circle cx="495" cy="615" r="0.5" opacity="0.3"/>
    <circle cx="585" cy="455" r="0.7" opacity="0.35"/>
    <circle cx="675" cy="555" r="0.5" opacity="0.3"/>
    <circle cx="765" cy="425" r="0.7" opacity="0.35"/>
    <circle cx="855" cy="595" r="0.5" opacity="0.3"/>
    <circle cx="945" cy="475" r="0.7" opacity="0.35"/>
    <circle cx="1035" cy="565" r="0.5" opacity="0.3"/>
    <circle cx="1125" cy="415" r="0.7" opacity="0.35"/>
    <circle cx="1215" cy="585" r="0.5" opacity="0.3"/>
    <circle cx="1305" cy="495" r="0.7" opacity="0.35"/>
    <circle cx="1395" cy="625" r="0.5" opacity="0.3"/>
    <circle cx="1485" cy="455" r="0.7" opacity="0.35"/>
    <circle cx="1575" cy="535" r="0.5" opacity="0.3"/>
    <circle cx="1665" cy="405" r="0.7" opacity="0.35"/>
    <circle cx="1755" cy="615" r="0.5" opacity="0.3"/>
    <circle cx="1845" cy="495" r="0.7" opacity="0.35"/>
    <circle cx="25" cy="735" r="0.5" opacity="0.3"/>
    <circle cx="115" cy="845" r="0.7" opacity="0.35"/>
    <circle cx="205" cy="695" r="0.5" opacity="0.3"/>
    <circle cx="295" cy="875" r="0.7" opacity="0.35"/>
    <circle cx="385" cy="755" r="0.5" opacity="0.3"/>
    <circle cx="475" cy="885" r="0.7" opacity="0.35"/>
    <circle cx="565" cy="725" r="0.5" opacity="0.3"/>
    <circle cx="655" cy="855" r="0.7" opacity="0.35"/>
    <circle cx="745" cy="775" r="0.5" opacity="0.3"/>
    <circle cx="835" cy="895" r="0.7" opacity="0.35"/>
    <circle cx="925" cy="735" r="0.5" opacity="0.3"/>
    <circle cx="1015" cy="865" r="0.7" opacity="0.35"/>
    <circle cx="1105" cy="795" r="0.5" opacity="0.3"/>
    <circle cx="1195" cy="905" r="0.7" opacity="0.35"/>
    <circle cx="1285" cy="755" r="0.5" opacity="0.3"/>
    <circle cx="1375" cy="885" r="0.7" opacity="0.35"/>
    <circle cx="1465" cy="745" r="0.5" opacity="0.3"/>
    <circle cx="1555" cy="875" r="0.7" opacity="0.35"/>
    <circle cx="1645" cy="815" r="0.5" opacity="0.3"/>
    <circle cx="1735" cy="925" r="0.7" opacity="0.35"/>
    <circle cx="1825" cy="765" r="0.5" opacity="0.3"/>
    <circle cx="1895" cy="855" r="0.7" opacity="0.35"/>
    <circle cx="65" cy="1035" r="0.5" opacity="0.3"/>
    <circle cx="155" cy="1055" r="0.7" opacity="0.35"/>
    <circle cx="245" cy="1015" r="0.5" opacity="0.3"/>
    <circle cx="335" cy="1065" r="0.7" opacity="0.35"/>
    <circle cx="425" cy="1045" r="0.5" opacity="0.3"/>
    <circle cx="515" cy="1075" r="0.7" opacity="0.35"/>
    <circle cx="605" cy="1025" r="0.5" opacity="0.3"/>
    <circle cx="695" cy="1055" r="0.7" opacity="0.35"/>
    <circle cx="785" cy="1015" r="0.5" opacity="0.3"/>
    <circle cx="875" cy="1065" r="0.7" opacity="0.35"/>
    <circle cx="965" cy="1045" r="0.5" opacity="0.3"/>
    <circle cx="1055" cy="1075" r="0.7" opacity="0.35"/>
    <circle cx="1145" cy="1025" r="0.5" opacity="0.3"/>
    <circle cx="1235" cy="1055" r="0.7" opacity="0.35"/>
    <circle cx="1325" cy="1015" r="0.5" opacity="0.3"/>
    <circle cx="1415" cy="1065" r="0.7" opacity="0.35"/>
    <circle cx="1505" cy="1045" r="0.5" opacity="0.3"/>
    <circle cx="1595" cy="1075" r="0.7" opacity="0.35"/>
    <circle cx="1685" cy="1025" r="0.5" opacity="0.3"/>
    <circle cx="1775" cy="1055" r="0.7" opacity="0.35"/>
    <circle cx="1865" cy="1015" r="0.5" opacity="0.3"/>
  </g>
</svg>