<svg xmlns="http://www.w3.org/2000/svg" viewBox="0 0 64 64" width="64" height="64">
  <defs>
    <linearGradient id="airGradient" x1="0%" y1="0%" x2="100%" y2="100%">
      <stop offset="0%" stop-color="#FFD700"/>
      <stop offset="100%" stop-color="#06B6D4"/>
    </linearGradient>
    <linearGradient id="airGradient2" x1="100%" y1="0%" x2="0%" y2="100%">
      <stop offset="0%" stop-color="#06B6D4"/>
      <stop offset="100%" stop-color="#FFD700"/>
    </linearGradient>
  </defs>
  <!-- Top wind line -->
  <path d="M8 16 Q20 12 28 16 T44 16 Q52 16 56 12" fill="none" stroke="url(#airGradient)" stroke-width="3" stroke-linecap="round"/>
  <!-- Main wind swirl -->
  <path d="M4 28 Q16 22 28 28 T52 28 Q60 28 60 36 Q60 44 52 44 L48 44" fill="none" stroke="url(#airGradient)" stroke-width="4" stroke-linecap="round"/>
  <!-- Middle wind line -->
  <path d="M12 40 Q24 36 36 40 T56 40" fill="none" stroke="url(#airGradient2)" stroke-width="3" stroke-linecap="round"/>
  <!-- Bottom swirl -->
  <path d="M8 52 Q20 48 32 52 T48 52 Q56 52 56 46" fill="none" stroke="url(#airGradient)" stroke-width="2.5" stroke-linecap="round"/>
  <!-- Small decorative dots -->
  <circle cx="20" cy="24" r="2" fill="#FFD700" opacity="0.6"/>
  <circle cx="44" cy="36" r="1.5" fill="#06B6D4" opacity="0.6"/>
  <circle cx="28" cy="48" r="1.5" fill="#FFD700" opacity="0.6"/>
</svg>
